<svg width="2037" height="2037" viewBox="0 0 2037 2037" fill="none"
    xmlns="http://www.w3.org/2000/svg">
    <rect width="2036.19" height="2036.19" rx="1018.09" fill="#10233E"/>
    <path d="M433.825 729.335C433.825 670.535 481.492 622.868 540.292 622.868H821.54V835.801H540.292C481.492 835.801 433.825 788.135 433.825 729.335V729.335Z" fill="#FDFBFC"/>
    <path fill-rule="evenodd" clip-rule="evenodd" d="M821.54 979.279H821.541V835.149H720.78C776.429 835.149 821.54 880.261 821.54 935.909V979.279Z" fill="#FDFBFC"/>
    <path fill-rule="evenodd" clip-rule="evenodd" d="M719.803 835.746C723.456 835.351 727.166 835.149 730.924 835.149C770.253 835.149 804.401 857.315 821.541 889.829V949.907C821.452 890.489 776.893 841.641 719.803 835.746Z" fill="#9F9F9F"/>
    <path d="M858.062 622.868V622.868C974.762 622.868 1069.37 717.471 1069.37 834.171V1161.56H858.062V622.868Z" fill="#FDFBFC"/>
    <path d="M1394.8 907.54H1590.77V1234.28H1394.8V907.54Z" fill="#FDFBFC"/>
    <path fill-rule="evenodd" clip-rule="evenodd" d="M667.673 1307.41C667.673 1360 710.306 1402.63 762.895 1402.63C815.485 1402.63 858.118 1360 858.118 1307.41V1137.79H1069.39V1291.23C1069.39 1466.77 927.09 1609.07 751.55 1609.07C576.011 1609.07 433.708 1466.77 433.708 1291.23V1137.79H667.673V1307.41Z" fill="#FDFBFC"/>
    <circle cx="1051.59" cy="488.684" r="141.684" fill="#FDFBFC"/>
    <path d="M1335.54 1427.1C1314.58 1441.58 1294.83 1459.15 1283.55 1482C1224.89 1600.86 1104.18 1683.63 963.714 1688V1688.19H1177.57C1405.78 1688.19 1590.77 1503.2 1590.77 1275.01V1216.99H1394.77V1314.31C1394.77 1361.08 1371.33 1402.38 1335.54 1427.1Z" fill="#9F9F9F"/>
    <path d="M1624.36 725.911C1624.36 669.002 1578.23 622.868 1521.32 622.868H1298.6V828.954H1521.32C1578.23 828.954 1624.36 782.82 1624.36 725.911Z" fill="#0987ED"/>
    <path d="M1375.52 786.66H1247.19V913.5H1298.55C1299.6 867.077 1333.56 829.725 1375.52 829.073V786.66Z" fill="#0987ED"/>
    <path d="M1298.6 622.868C1196.51 622.868 1113.75 705.635 1113.75 807.733V1316.58H1298.6V622.868Z" fill="#0987ED"/>
    <path d="M630.455 1588.65C695.441 1644.2 779.802 1677.75 871.999 1677.75H926.672C1132.08 1677.75 1298.6 1511.22 1298.6 1305.79V1206.48H1113.75V1308.77C1113.75 1342.52 1100.94 1373.28 1079.92 1396.46C1070.16 1407.22 1061.05 1418.74 1054.68 1431.81C1001.63 1540.64 889.925 1615.63 760.709 1615.63C714.412 1615.63 670.363 1606.01 630.455 1588.65Z" fill="#0987ED"/>
    <path fill-rule="evenodd" clip-rule="evenodd" d="M1148.44 699.9C1182 653.247 1236.75 622.868 1298.6 622.868V1206.48V1305.79V1316.58H1298.45C1292.74 1517.02 1128.48 1677.75 926.673 1677.75H882.9C1021.59 1616.22 1101.1 1495.4 1135.14 1410.66C1145.34 1385.27 1148.44 1357.85 1148.44 1330.49V699.9Z" fill="#07B5FE"/>
    <path fill-rule="evenodd" clip-rule="evenodd" d="M1141.04 1688.19H1177.57C1405.78 1688.19 1590.77 1503.2 1590.77 1275.01V1216.99H1394.77V1314.31C1394.77 1361.08 1371.32 1402.38 1335.54 1427.09C1334.47 1427.83 1333.41 1428.58 1332.35 1429.33C1322.39 1538.96 1248.3 1633.78 1141.04 1688.19Z" fill="#FDFBFC"/>
    <path fill-rule="evenodd" clip-rule="evenodd" d="M1521.32 622.868C1578.23 622.868 1624.36 669.002 1624.36 725.911C1624.36 752.354 1614.4 776.471 1598.03 794.715H1401.97C1351.99 794.715 1310.8 832.317 1305.14 880.774C1301.14 890.825 1298.81 901.878 1298.55 913.5H1247.19V786.66H1298.6V622.868H1521.32Z" fill="#07B5FE"/>
</svg>
